<svg width="20" height="20" viewBox="0 0 20 20" fill="none" xmlns="http://www.w3.org/2000/svg">
<path d="M9.99996 1.66666C5.39746 1.66666 1.66663 5.39749 1.66663 9.99999C1.66663 14.6025 5.39746 18.3333 9.99996 18.3333C14.6025 18.3333 18.3333 14.6025 18.3333 9.99999C18.3333 5.39749 14.6025 1.66666 9.99996 1.66666ZM9.99996 16.6667L11.6666 15L12.5 14.1667V12.5H10.8333V11.6667L9.99996 10.8333H7.49996V13.3333L9.16663 15V16.6092C5.88329 16.1967 3.33329 13.3933 3.33329 9.99999L4.16663 10.8333H5.83329V9.16666H7.49996L9.99996 6.66666V4.99999H8.33329L7.49996 4.16666V3.82416C9.10265 3.17108 10.8973 3.17108 12.5 3.82416V4.99999L11.6666 5.83332V7.49999L12.5 8.33332L15.1083 5.72499C15.7424 6.48436 16.1996 7.37535 16.4466 8.33332H15L13.3333 9.99999V11.6667L14.1666 12.5H15.8333L16.0716 12.7383C15.0241 15.0508 12.6991 16.6667 9.99996 16.6667Z" fill="black"/>
</svg>
