<svg width="20" height="20" viewBox="0 0 20 20" fill="none" xmlns="http://www.w3.org/2000/svg">
<g clip-path="url(#clip0_10_13)">
<path d="M0.400024 2.39999C0.267416 2.39999 0.140239 2.45267 0.046471 2.54644C-0.0472972 2.64021 -0.0999756 2.76739 -0.0999756 2.89999V17.1C-0.0999756 17.2326 -0.0472972 17.3598 0.046471 17.4535C0.140239 17.5473 0.267416 17.6 0.400024 17.6H13.776C13.6015 17.3699 13.4266 17.1399 13.2512 16.91C13.0328 16.5878 12.7156 16.312 12.6226 15.9204C11.3366 16.4512 9.85902 16.5004 8.53942 16.0598C8.51042 16.0504 8.48202 16.0388 8.45322 16.029C8.30182 16.177 8.13862 16.435 8.11282 16.6H6.21142C6.35422 16.1162 6.05102 15.3608 6.33782 14.8684C6.36062 14.8624 6.38822 14.8238 6.40082 14.784C6.36842 14.7536 6.33562 14.724 6.30402 14.693C6.02282 14.7786 5.91042 14.9904 5.75402 15.1762C5.83942 15.581 5.22302 15.4852 5.28522 15.8982C5.71462 16.2312 4.88882 15.9774 4.64322 16.004C4.38262 16.0068 3.62022 15.734 3.88482 16.292C3.84342 16.4452 3.88162 16.5392 3.95782 16.6H3.84102C3.82282 16.4248 3.49282 16.3988 3.36562 16.3128C3.15142 16.2608 2.89562 16.2348 2.67382 16.136C2.61682 16.2944 2.10242 16.4756 1.98982 16.6H0.900024V9.29379C1.05342 9.39659 1.39742 9.35579 0.928624 9.13379H0.900024V6.83099C0.991024 6.78499 1.05602 6.77039 1.05202 6.84739C1.27742 6.77139 1.37562 6.22279 1.76562 6.44739C2.00882 6.48319 2.41122 6.86019 2.20902 6.90739C2.36662 7.29219 2.47842 7.04439 2.67182 7.50299C2.53942 8.13019 3.04642 8.59499 3.32462 8.99479C3.65782 9.13319 3.78962 9.56399 4.33122 9.58079C4.40482 9.64519 4.49922 9.70359 4.59762 9.75959C4.62482 9.55266 4.66262 9.34773 4.71102 9.14479C4.69802 9.14179 4.68542 9.13999 4.67142 9.13539C4.15042 9.61599 4.04362 8.78399 4.55242 8.75139C4.58642 8.74926 4.62309 8.75093 4.66242 8.75639C4.72142 8.74939 4.77042 8.75639 4.81182 8.77099C4.97892 8.22324 5.22649 7.70336 5.54642 7.22839C5.71839 6.97212 5.91125 6.73049 6.12302 6.50599C6.01782 6.32999 5.91022 6.23179 5.78322 6.46159C5.77362 6.12059 4.85162 5.76319 5.53002 6.09039C5.88582 6.39699 6.00242 6.03719 6.05862 5.79159C6.36362 5.47359 5.74602 5.36499 5.85862 5.15719C5.67142 4.87659 5.39422 4.58919 5.10942 4.41539C4.55702 4.47939 4.36342 4.36279 5.10202 4.36239C5.16862 4.01739 5.27922 3.77299 5.35542 3.48259C5.27542 3.45959 5.19182 3.46319 5.10942 3.46299C4.75602 3.41559 4.54622 3.55219 4.55342 3.82199C4.28802 3.80079 4.52642 3.34839 4.11722 3.48659C3.49682 3.47679 4.24682 3.68639 4.18922 3.71659C4.11822 3.87579 3.67122 3.77659 3.72382 3.93799C3.51902 3.55919 3.42582 4.11859 3.26642 3.73539C3.17042 3.64339 3.66842 3.82619 3.55502 3.49079C3.30422 3.39479 3.21442 3.56279 3.01902 3.63139C2.43582 3.95419 3.12082 4.25779 3.41702 4.36539C3.86342 4.24639 3.86302 4.09599 4.17342 4.26139C4.52142 4.45439 3.82202 4.31879 3.84342 4.61579C3.80342 4.43119 3.75342 4.31979 3.53742 4.55639C3.24942 4.60839 3.12082 4.21259 2.90582 4.24039C2.41582 4.17379 2.59882 5.27579 3.00242 4.90059C3.24662 5.32319 2.69042 5.01139 2.52542 4.96419C2.15282 5.38039 1.75142 4.95339 1.30662 4.93619C1.16422 4.84139 1.02462 4.84019 0.900024 4.88839V3.39999H6.14462C5.77062 3.41019 5.43662 3.45959 5.57262 3.72859C5.55062 4.24739 6.22182 3.83539 6.31842 4.30459C6.59722 4.63239 6.15262 5.32939 6.63482 5.20699C6.45742 5.42279 6.47962 5.76659 6.61802 6.03759C7.13003 5.60792 7.71066 5.26744 8.33562 5.03039C8.34662 4.96879 8.33802 4.89799 8.30122 4.81439C8.23862 4.50059 8.52982 4.40039 8.42782 4.05239C8.56502 3.79039 8.45862 3.51319 8.22342 3.39999H19.1V4.81559C19.069 4.80239 19.0371 4.79117 19.0046 4.78199C18.7228 5.03739 18.9506 5.06159 19.1 5.00419V5.22739C18.7668 5.03999 18.4008 5.01939 18.0454 5.09739C17.884 4.81679 17.3126 4.82339 17.1246 4.57079C16.7934 4.17399 17.2256 4.29239 17.5146 4.26179C17.4326 4.01379 16.9406 3.89619 16.7328 3.93719C16.3574 4.14279 16.93 4.32719 16.8722 4.60319C16.8722 4.80379 16.6276 4.80519 16.4142 4.79419C16.5004 4.58179 16.0056 4.32059 15.8094 4.49339C15.438 4.38099 15.2964 4.44699 15.5414 4.06019C15.4558 3.76279 15.102 3.75719 14.9434 3.55079C14.7408 3.98039 14.403 3.85019 14.041 4.11179C13.896 4.32379 13.594 4.51419 13.579 4.65419C13.3546 4.75959 13.13 4.22179 12.9726 4.69819C12.8298 5.10139 12.9806 5.29679 12.4988 4.96679C12.0002 4.43539 13.5004 3.98019 12.9428 3.75399C12.48 3.88899 12.2018 4.21519 12.1098 4.67859C12.06 4.78399 12.0826 4.85739 12.1352 4.91679C13.892 5.44079 15.3458 6.85359 15.9368 8.58679C15.946 8.48239 15.9634 8.38199 15.9984 8.30859C16.1462 8.19579 16.029 8.74159 16.3344 8.43119C16.1094 8.91419 16.9 8.49519 17.007 8.29579C16.8502 7.90219 17.571 7.71679 17.5542 7.64259C17.2888 7.36419 17.4396 7.64119 17.1468 7.70499C17.0498 7.57579 17.3328 6.86739 16.9562 6.93239C16.3938 6.78759 17.4346 6.37339 17.7156 6.52579C17.8436 6.05219 18.0276 6.42939 17.7114 6.64719C17.591 7.06739 17.6486 7.64059 18.0028 7.07899C18.162 6.92399 18.1224 6.51999 18.3296 6.44959C18.608 6.31839 19.1048 6.21579 19.0918 5.81019C19.0946 5.80939 19.0972 5.80959 19.1 5.80899V16.6H18.3082C18.4798 16.3624 18.7068 15.956 18.4664 15.8086C18.1042 15.746 17.8336 15.3092 17.3958 15.3274C17.1982 15.0998 16.7432 14.9846 16.6208 14.9402C16.4984 14.8958 16.286 15.1524 16.0684 15.039C16.0029 15.0285 15.9361 15.0297 15.871 15.0426C16.5258 15.8926 17.1744 16.7472 17.8254 17.6H19.6C19.7326 17.6 19.8598 17.5473 19.9536 17.4535C20.0473 17.3598 20.1 17.2326 20.1 17.1V2.89999C20.1 2.76739 20.0473 2.64021 19.9536 2.54644C19.8598 2.45267 19.7326 2.39999 19.6 2.39999H0.400024ZM10.138 3.46399C9.81602 3.62259 10.387 4.25399 10.4028 3.65119C10.4618 3.73919 10.8576 3.82799 10.7282 3.54419C10.4406 3.37479 10.4842 3.56959 10.1378 3.46419M14.754 3.46459C15.058 3.63699 14.4066 3.63379 14.754 3.46459ZM3.71802 3.52199C3.45802 3.71519 4.09962 3.90639 3.75202 3.53219L3.71802 3.52199ZM5.84702 3.63659C5.91202 3.69899 5.78282 3.67679 5.84702 3.63659ZM3.33602 3.88359C3.36662 3.91899 3.32002 3.88619 3.33602 3.88359ZM4.22662 3.96599C4.54002 4.02039 4.20262 4.09399 4.22662 3.96599ZM4.66562 4.00199C4.96362 3.98299 4.77502 4.07599 4.66562 4.00199ZM3.79062 4.01519C3.98442 4.03519 3.76582 4.10499 3.79062 4.01519ZM4.41102 4.29679C4.60702 4.34199 4.31462 4.35779 4.41102 4.29679ZM4.54922 4.60859C4.43122 4.98499 4.96862 5.49459 4.55162 5.06559C4.43702 4.89399 4.37742 4.72959 4.54922 4.60859ZM3.84962 4.64659C4.02142 4.93359 4.28302 5.01019 4.06402 5.10899C3.91862 5.03859 3.88502 4.81939 3.84962 4.64659ZM6.54542 4.93579C6.56962 4.95199 6.48022 4.93979 6.54542 4.93579ZM2.49022 5.02639C2.46782 5.11719 2.45922 5.02779 2.49022 5.02639ZM4.03902 5.17319C4.02502 5.36239 3.94762 5.16979 4.03902 5.17319ZM5.18862 5.17439C5.11382 5.54439 5.41062 5.52079 5.39062 5.55799C5.14542 5.66599 5.20402 6.11079 5.01642 5.77139C4.89802 5.71619 5.07722 5.22779 5.15782 5.18499L5.18862 5.17439ZM3.98322 5.17479C4.00942 5.18079 3.98142 5.26139 3.98322 5.17479ZM18.4504 5.20799C18.4584 5.22159 18.4156 5.24199 18.4504 5.20799ZM3.99762 5.25639C4.13402 5.39919 3.81482 5.38639 3.99762 5.25639ZM10.3532 5.45299C9.26262 5.46063 8.20401 5.82239 7.33682 6.48379C5.11882 8.17279 4.68722 11.3568 6.37622 13.5748C7.95722 15.651 10.8442 16.1518 13.0262 14.8224L13.443 15.3698C13.361 15.5606 13.3686 15.743 13.464 15.8686L16.488 19.8396C16.668 20.0758 17.1026 20.0476 17.4586 19.7764C17.8146 19.5054 17.9572 19.094 17.7774 18.8576L14.7534 14.8866C14.6578 14.761 14.484 14.705 14.2782 14.7334L13.8614 14.1862C15.7232 12.4362 16.0086 9.52019 14.4278 7.44399C13.5832 6.33499 12.3648 5.67299 11.0804 5.49899C10.8394 5.46634 10.5964 5.45097 10.3532 5.45299ZM4.67542 5.95459C4.80042 6.25139 5.28322 6.07719 5.09422 6.48179C5.30462 6.67979 5.06082 7.37779 4.97902 6.78299C4.45542 6.78039 4.20542 6.25799 4.64502 5.98379L4.67542 5.95459ZM5.13162 6.00379C5.29162 6.13979 4.87962 6.07959 5.13162 6.00379ZM17.6972 6.36939C17.746 6.43119 17.7112 6.35939 17.6972 6.36939ZM10.5546 6.57359C10.6806 6.57853 10.806 6.58933 10.9306 6.60599C11.4432 6.67527 11.937 6.84518 12.3836 7.10597C12.8303 7.36676 13.221 7.71328 13.5332 8.12559C13.8474 8.53634 14.0773 9.00509 14.2099 9.50494C14.3424 10.0048 14.3749 10.5259 14.3055 11.0383C14.2361 11.5508 14.0662 12.0445 13.8055 12.4911C13.5448 12.9377 13.1985 13.3284 12.7864 13.6408C12.3757 13.955 11.9069 14.185 11.407 14.3175C10.9072 14.4501 10.386 14.4826 9.87358 14.4132C9.36111 14.3438 8.8674 14.1739 8.42078 13.9132C7.97416 13.6525 7.58343 13.3061 7.27102 12.894C6.95687 12.4832 6.72693 12.0145 6.59441 11.5146C6.46189 11.0148 6.4294 10.4937 6.49881 9.98121C6.56822 9.46877 6.73815 8.97508 6.99886 8.52848C7.25957 8.08189 7.60592 7.69118 8.01802 7.37879C8.74379 6.8228 9.64106 6.53798 10.5546 6.57359ZM18.2722 6.77959C18.6492 6.99179 17.9582 7.03939 18.2722 6.77959ZM18.6462 6.99599C18.95 7.16599 18.2986 7.16579 18.6462 6.99599ZM18.8726 7.07519C19.1886 7.19759 18.5626 7.33319 18.8726 7.07519ZM18.8602 7.13119C18.8774 7.13099 18.8496 7.14939 18.8602 7.13119ZM18.8898 7.16339C18.8992 7.17859 18.8648 7.16659 18.8898 7.16339ZM10.422 7.37199C9.98482 7.36419 9.55322 7.46199 9.15522 7.63759C9.17602 7.66299 9.20582 7.68739 9.24942 7.70939C8.84942 7.57939 8.73302 8.08479 8.90142 8.31219L9.17202 8.33439L9.39822 8.23479C9.54442 8.08279 9.58082 8.10899 9.62802 7.87879L9.71622 7.89019L9.78622 7.86099L9.94562 7.93979C10.1368 8.01459 10.1458 8.17579 10.0818 8.22299C9.99122 8.27879 10.098 8.28699 10.1068 8.32159C10.152 8.30859 10.1784 8.26959 10.2068 8.24879L10.258 8.23039C10.4448 8.10779 10.3144 8.06739 10.1846 7.90199L10.2534 7.91959C10.354 8.03359 10.4132 8.16259 10.4728 8.29959C10.4796 8.30499 10.4858 8.31199 10.4936 8.31439C10.5388 8.32939 10.6026 8.32439 10.6572 8.30939C10.7112 8.29459 10.7148 8.19159 10.7056 8.09299C10.7826 8.44419 11.5378 8.33979 11.0884 8.55399C10.8294 8.55979 10.4178 8.41779 10.342 8.59719C10.1744 8.52119 10.0888 8.47139 10.0548 8.43239C9.95162 8.39359 9.65462 8.28119 9.64402 8.28119C9.63142 8.28119 9.25342 8.34999 9.25342 8.34999L8.94142 8.46839C8.84002 8.79519 8.68002 8.62039 8.62562 8.87379C8.58302 9.03579 8.21642 9.38579 8.40842 9.66139C8.57982 10.4586 9.57362 9.92779 9.80522 10.3106C9.69642 10.5464 10.2346 10.995 9.93342 11.3812C10.0754 11.9422 10.457 12.88 11.071 12.0816C11.233 11.6036 11.5818 11.3452 11.5694 10.871C11.384 10.404 12.4754 10.0578 12.0388 9.67959C11.9342 9.69199 11.9222 9.71459 11.8392 9.74219C11.6648 9.73559 11.6198 9.59499 11.5604 9.50659C11.5151 9.4421 11.4749 9.37408 11.4404 9.30319C11.5514 9.47519 11.666 9.62119 11.8268 9.71099C12.105 9.64859 12.424 9.44279 12.5538 9.29179C12.5506 8.70319 13.3418 9.31379 13.3258 9.75619C13.3748 9.87539 13.437 9.95819 13.4994 10.0066C13.4553 9.72362 13.3708 9.44843 13.2486 9.18939C13.0268 8.70259 12.6716 8.28459 12.24 7.97179C12.232 7.98419 12.212 7.98499 12.216 7.95499C12.1576 7.91366 12.098 7.87426 12.037 7.83679C12.0437 7.86466 12.0516 7.89286 12.0608 7.92139C12.0346 7.88239 12.007 7.84279 11.9842 7.80459C11.513 7.52699 10.9726 7.36779 10.4222 7.37179L10.422 7.37199ZM16.9294 7.39839C17.0744 7.81159 16.425 8.76919 16.3306 8.14059C16.3972 7.82979 16.9302 7.87659 16.9294 7.39839ZM4.75442 7.50759C4.78362 7.50419 4.74982 7.52259 4.75442 7.50759ZM5.06262 7.65299C5.12082 7.70139 4.99222 7.68939 5.06262 7.65299ZM11.0682 7.66619C11.2296 7.80219 11.7248 7.98219 11.2006 7.83859C10.9278 7.96319 10.8434 7.88339 11.0682 7.66619ZM9.82062 7.90819C9.78542 7.91899 9.81522 7.99199 9.79322 8.01499C9.94322 8.08839 9.85922 7.94559 9.88142 7.92219C9.85102 7.90779 9.83222 7.90439 9.82062 7.90819ZM12.1072 8.05719C12.1536 8.17779 12.1844 8.25479 12.0652 8.10519C12.0751 8.1005 12.084 8.09382 12.0912 8.08556C12.0984 8.0773 12.1039 8.06765 12.1072 8.05719ZM9.83462 8.07219C9.77582 8.06579 9.74462 8.10519 9.74442 8.16019C9.89942 8.24439 9.88342 8.10539 9.90242 8.09479C9.8813 8.08323 9.85847 8.07557 9.83462 8.07219ZM12.2292 8.92879C12.3176 8.93239 12.1446 9.05679 12.1742 8.93579C12.1988 8.93039 12.2166 8.92819 12.2292 8.92879ZM18.3214 9.71119C18.6646 10.071 18.0334 10.0172 18.3214 9.71119ZM18.3014 9.75879C18.331 9.75559 18.296 9.77919 18.3014 9.75879ZM18.3262 9.80259C18.329 9.82319 18.2962 9.79759 18.3262 9.80259ZM18.5356 9.84259C18.8724 9.99699 18.2566 10.0854 18.5356 9.84259ZM18.5656 9.91159C18.5868 9.90799 18.5616 9.94099 18.5656 9.91159ZM18.5262 9.92219C18.5446 9.94699 18.51 9.93619 18.5262 9.92219ZM16.2468 10.2366C16.2518 10.3614 16.2528 10.4861 16.25 10.6106C16.4794 10.6472 16.7668 10.6368 16.7722 10.8906C17.1834 10.9084 16.7298 11.509 16.7148 10.953C16.5473 10.9289 16.3764 10.9578 16.2262 11.0358C16.1846 11.4722 16.0953 11.9028 15.9598 12.3198C16.2958 12.2132 16.6386 12.2236 16.841 12.5502C17.374 12.5482 16.9206 12.9116 17.2984 12.9858C17.4594 12.657 17.2136 12.6984 17.5156 12.4304C17.8086 12.0558 17.6168 11.572 17.3246 11.3674C17.2638 11.1358 17.0216 11.0106 17.1356 10.8526C17.3576 11.1536 17.6722 10.9282 17.4096 10.7654C17.6034 10.5844 18.2958 11.2318 17.907 10.7338C17.715 10.6982 17.4512 10.3012 17.3914 10.5568C17.3742 10.7688 16.8452 10.235 16.65 10.4534C16.5936 10.2566 16.3176 10.3754 16.302 10.4632C16.3868 10.3312 16.3334 10.263 16.2468 10.2366ZM17.2644 10.4076C17.5232 10.5648 16.9778 10.5704 17.2644 10.4076ZM9.77742 10.4216C9.80042 10.4736 9.77082 10.4302 9.77742 10.4216ZM7.26682 10.446C7.26082 10.7237 7.29168 11.001 7.35862 11.2706C7.58862 10.9222 7.57962 10.595 7.26682 10.446ZM17.2496 10.4556C17.2668 10.468 17.2284 10.4604 17.2496 10.4556ZM17.4434 10.4796C17.5368 10.5456 17.3498 10.5456 17.4434 10.4796ZM17.4434 10.4816C17.5284 10.5428 17.3582 10.5428 17.4434 10.4816ZM17.2688 10.499C17.272 10.5192 17.2392 10.4954 17.2688 10.499ZM16.2484 10.7162C16.2464 10.7642 16.2422 10.8122 16.239 10.8602C16.3036 10.7874 16.3316 10.7122 16.2484 10.7162ZM11.69 10.9234C11.4588 11.0504 11.9374 11.1084 11.7374 10.9594L11.7288 10.938L11.69 10.9234ZM11.9604 10.959C11.732 11.1018 11.3776 11.7826 11.869 11.804C11.9874 11.6632 12.2876 11.0354 11.9604 10.959ZM18.1556 11.3926C18.687 11.6092 17.9726 11.7536 18.1556 11.3926ZM12.3264 11.4406C12.6146 11.6148 12.0292 11.64 12.3264 11.4406ZM18.6326 12.2638C18.8018 12.6468 18.2406 12.8762 18.283 13.2318C18.571 13.3706 18.7196 12.8482 18.9224 12.6884C19.1622 12.4788 18.7336 12.4168 18.6326 12.2638ZM5.33102 13.4418C5.36382 13.6526 5.46262 13.8566 5.63902 13.9188C5.52863 13.7649 5.42584 13.6057 5.33102 13.4418Z" fill="black"/>
</g>
<defs>
<clipPath id="clip0_10_13">
<rect width="20" height="20" fill="white"/>
</clipPath>
</defs>
</svg>
