<svg width="21" height="20" viewBox="0 0 21 20" fill="none" xmlns="http://www.w3.org/2000/svg">
<path d="M16.6667 17.5L11.4167 12.25C11 12.5833 10.5209 12.8472 9.97921 13.0417C9.43754 13.2361 8.86115 13.3333 8.25004 13.3333C6.73615 13.3333 5.45504 12.8089 4.40671 11.76C3.35837 10.7111 2.83393 9.43 2.83337 7.91667C2.83282 6.40333 3.35726 5.12222 4.40671 4.07333C5.45615 3.02444 6.73726 2.5 8.25004 2.5C9.76282 2.5 11.0442 3.02444 12.0942 4.07333C13.1442 5.12222 13.6684 6.40333 13.6667 7.91667C13.6667 8.52778 13.5695 9.10417 13.375 9.64583C13.1806 10.1875 12.9167 10.6667 12.5834 11.0833L17.8334 16.3333L16.6667 17.5ZM8.25004 11.6667C9.29171 11.6667 10.1773 11.3022 10.9067 10.5733C11.6362 9.84444 12.0006 8.95889 12 7.91667C11.9995 6.87444 11.635 5.98917 10.9067 5.26083C10.1784 4.5325 9.29282 4.16778 8.25004 4.16667C7.20726 4.16556 6.32199 4.53028 5.59421 5.26083C4.86643 5.99139 4.50171 6.87667 4.50004 7.91667C4.49837 8.95667 4.8631 9.84222 5.59421 10.5733C6.32532 11.3044 7.2106 11.6689 8.25004 11.6667Z" fill="#626262"/>
</svg>
