<svg width="19" height="22" viewBox="0 0 19 22" fill="none" xmlns="http://www.w3.org/2000/svg">
<path d="M3.41671 8.36111H15.9167M3.41671 13.6389H15.9167M5.63893 5.86111C4.94448 5.86111 4.52782 6.27778 4.52782 6.97222C4.52782 7.66667 4.94448 8.08333 5.63893 8.08333C6.33337 8.08333 6.75004 7.66667 6.75004 6.97222C6.75004 6.27778 6.33337 5.86111 5.63893 5.86111ZM9.8056 5.86111C9.11115 5.86111 8.69448 6.27778 8.69448 6.97222C8.69448 7.66667 9.11115 8.08333 9.8056 8.08333C10.5 8.08333 10.9167 7.66667 10.9167 6.97222C10.9167 6.27778 10.5 5.86111 9.8056 5.86111ZM13.9723 5.86111C13.2778 5.86111 12.8612 6.27778 12.8612 6.97222C12.8612 7.66667 13.2778 8.08333 13.9723 8.08333C14.6667 8.08333 15.0834 7.66667 15.0834 6.97222C15.0834 6.27778 14.6667 5.86111 13.9723 5.86111ZM5.63893 11.1389C4.94448 11.1389 4.52782 11.5556 4.52782 12.25C4.52782 12.9444 4.94448 13.3611 5.63893 13.3611C6.33337 13.3611 6.75004 12.9444 6.75004 12.25C6.75004 11.5556 6.33337 11.1389 5.63893 11.1389ZM9.8056 11.1389C9.11115 11.1389 8.69448 11.5556 8.69448 12.25C8.69448 12.9444 9.11115 13.3611 9.8056 13.3611C10.5 13.3611 10.9167 12.9444 10.9167 12.25C10.9167 11.5556 10.5 11.1389 9.8056 11.1389ZM13.9723 11.1389C13.2778 11.1389 12.8612 11.5556 12.8612 12.25C12.8612 12.9444 13.2778 13.3611 13.9723 13.3611C14.6667 13.3611 15.0834 12.9444 15.0834 12.25C15.0834 11.5556 14.6667 11.1389 13.9723 11.1389ZM5.63893 16.4167C4.94448 16.4167 4.52782 16.8333 4.52782 17.5278C4.52782 18.2222 4.94448 18.6389 5.63893 18.6389C6.33337 18.6389 6.75004 18.2222 6.75004 17.5278C6.75004 16.8333 6.33337 16.4167 5.63893 16.4167ZM9.8056 16.4167C9.11115 16.4167 8.69448 16.8333 8.69448 17.5278C8.69448 18.2222 9.11115 18.6389 9.8056 18.6389C10.5 18.6389 10.9167 18.2222 10.9167 17.5278C10.9167 16.8333 10.5 16.4167 9.8056 16.4167ZM13.9723 16.4167C13.2778 16.4167 12.8612 16.8333 12.8612 17.5278C12.8612 18.2222 13.2778 18.6389 13.9723 18.6389C14.6667 18.6389 15.0834 18.2222 15.0834 17.5278C15.0834 16.8333 14.6667 16.4167 13.9723 16.4167ZM3.97226 18.9167H15.3612C15.668 18.9167 15.9167 18.6679 15.9167 18.3611V3.63889C15.9167 3.33206 15.668 3.08333 15.3612 3.08333H3.97226C3.66544 3.08333 3.41671 3.33206 3.41671 3.63889V18.3611C3.41671 18.6679 3.66544 18.9167 3.97226 18.9167ZM3.83337 21H15.5C16.8808 21 18 19.8807 18 18.5V3.5C18 2.11929 16.8808 1 15.5 1H3.83337C2.45266 1 1.33337 2.11929 1.33337 3.5V18.5C1.33337 19.8807 2.45266 21 3.83337 21Z" stroke="#282828"/>
</svg>
