<svg width="20" height="20" viewBox="0 0 20 20" fill="none" xmlns="http://www.w3.org/2000/svg">
<path fill-rule="evenodd" clip-rule="evenodd" d="M7.74414 6.07748C7.90041 5.92126 8.11233 5.8335 8.3333 5.8335C8.55427 5.8335 8.7662 5.92126 8.92247 6.07748L12.845 9.99998L8.92247 13.9225C8.7653 14.0743 8.5548 14.1583 8.3363 14.1564C8.11781 14.1545 7.9088 14.0668 7.75429 13.9123C7.59978 13.7578 7.51214 13.5488 7.51024 13.3303C7.50834 13.1118 7.59234 12.9013 7.74414 12.7442L10.4883 9.99998L7.74414 7.25582C7.58791 7.09954 7.50015 6.88762 7.50015 6.66665C7.50015 6.44568 7.58791 6.23376 7.74414 6.07748Z" fill="#999999"/>
</svg>
