<svg width="83" height="49" viewBox="0 0 83 49" fill="none" xmlns="http://www.w3.org/2000/svg">
<path d="M34.1147 11.9847C34.4938 12.3639 34.4938 12.9786 34.1147 13.3578C33.7355 13.737 33.1208 13.737 32.7416 13.3578C32.3624 12.9786 32.3624 12.3639 32.7416 11.9847C33.1208 11.6055 33.7355 11.6055 34.1147 11.9847Z" fill="#79296B"/>
<path d="M39.607 11.9847C39.9862 12.3639 39.9862 12.9786 39.607 13.3578C39.2279 13.737 38.6131 13.737 38.234 13.3578C37.8548 12.9786 37.8548 12.3639 38.234 11.9847C38.6131 11.6055 39.2279 11.6055 39.607 11.9847Z" fill="#79296B"/>
<path d="M45.0994 11.9847C45.4786 12.3639 45.4786 12.9786 45.0994 13.3578C44.7202 13.737 44.1055 13.737 43.7263 13.3578C43.3471 12.9786 43.3471 12.3639 43.7263 11.9847C44.1055 11.6055 44.7202 11.6055 45.0994 11.9847Z" fill="#79296B"/>
<path d="M50.5918 11.9847C50.9709 12.3639 50.9709 12.9786 50.5918 13.3578C50.2126 13.737 49.5978 13.737 49.2187 13.3578C48.8395 12.9786 48.8395 12.3639 49.2187 11.9847C49.5978 11.6055 50.2126 11.6055 50.5918 11.9847Z" fill="#79296B"/>
<path d="M36.8609 16.104C37.24 16.4831 37.24 17.0979 36.8609 17.4771C36.4817 17.8562 35.8669 17.8562 35.4878 17.4771C35.1086 17.0979 35.1086 16.4831 35.4878 16.104C35.8669 15.7248 36.4817 15.7248 36.8609 16.104Z" fill="#79296B"/>
<path d="M42.3532 16.104C42.7324 16.4831 42.7324 17.0979 42.3532 17.4771C41.9741 17.8562 41.3593 17.8562 40.9801 17.4771C40.601 17.0979 40.601 16.4831 40.9801 16.104C41.3593 15.7248 41.9741 15.7248 42.3532 16.104Z" fill="#79296B"/>
<path d="M47.8456 16.104C48.2248 16.4831 48.2248 17.0979 47.8456 17.4771C47.4664 17.8562 46.8517 17.8562 46.4725 17.4771C46.0933 17.0979 46.0933 16.4831 46.4725 16.104C46.8517 15.7248 47.4664 15.7248 47.8456 16.104Z" fill="#79296B"/>
<path d="M45.0994 20.2232C45.4786 20.6024 45.4786 21.2172 45.0994 21.5963C44.7202 21.9755 44.1055 21.9755 43.7263 21.5963C43.3471 21.2172 43.3471 20.6024 43.7263 20.2232C44.1055 19.8441 44.7202 19.8441 45.0994 20.2232Z" fill="#79296B"/>
<path d="M39.607 20.2232C39.9862 20.6024 39.9862 21.2172 39.607 21.5963C39.2279 21.9755 38.6131 21.9755 38.234 21.5963C37.8548 21.2172 37.8548 20.6024 38.234 20.2232C38.6131 19.8441 39.2279 19.8441 39.607 20.2232Z" fill="#79296B"/>
<path d="M42.3532 24.3425C42.7324 24.7217 42.7324 25.3364 42.3532 25.7156C41.9741 26.0948 41.3593 26.0948 40.9801 25.7156C40.601 25.3364 40.601 24.7217 40.9801 24.3425C41.3593 23.9633 41.9741 23.9633 42.3532 24.3425Z" fill="#79296B"/>
<path d="M36.8609 7.86543C37.24 8.2446 37.24 8.85935 36.8609 9.23852C36.4817 9.61769 35.8669 9.61769 35.4878 9.23852C35.1086 8.85935 35.1086 8.2446 35.4878 7.86543C35.8669 7.48626 36.4817 7.48626 36.8609 7.86543Z" fill="#79296B"/>
<path d="M47.8456 7.86543C48.2248 8.2446 48.2248 8.85935 47.8456 9.23852C47.4664 9.61769 46.8517 9.61769 46.4725 9.23852C46.0933 8.85935 46.0933 8.2446 46.4725 7.86543C46.8517 7.48626 47.4664 7.48626 47.8456 7.86543Z" fill="#79296B"/>
<path d="M34.1147 11.9847C34.4938 12.3639 34.4938 12.9786 34.1147 13.3578C33.7355 13.737 33.1208 13.737 32.7416 13.3578C32.3624 12.9786 32.3624 12.3639 32.7416 11.9847C33.1208 11.6055 33.7355 11.6055 34.1147 11.9847Z" stroke="#79296B"/>
<path d="M39.607 11.9847C39.9862 12.3639 39.9862 12.9786 39.607 13.3578C39.2279 13.737 38.6131 13.737 38.234 13.3578C37.8548 12.9786 37.8548 12.3639 38.234 11.9847C38.6131 11.6055 39.2279 11.6055 39.607 11.9847Z" stroke="#79296B"/>
<path d="M45.0994 11.9847C45.4786 12.3639 45.4786 12.9786 45.0994 13.3578C44.7202 13.737 44.1055 13.737 43.7263 13.3578C43.3471 12.9786 43.3471 12.3639 43.7263 11.9847C44.1055 11.6055 44.7202 11.6055 45.0994 11.9847Z" stroke="#79296B"/>
<path d="M50.5918 11.9847C50.9709 12.3639 50.9709 12.9786 50.5918 13.3578C50.2126 13.737 49.5978 13.737 49.2187 13.3578C48.8395 12.9786 48.8395 12.3639 49.2187 11.9847C49.5978 11.6055 50.2126 11.6055 50.5918 11.9847Z" stroke="#79296B"/>
<path d="M36.8609 16.104C37.24 16.4831 37.24 17.0979 36.8609 17.4771C36.4817 17.8562 35.8669 17.8562 35.4878 17.4771C35.1086 17.0979 35.1086 16.4831 35.4878 16.104C35.8669 15.7248 36.4817 15.7248 36.8609 16.104Z" stroke="#79296B"/>
<path d="M42.3532 16.104C42.7324 16.4831 42.7324 17.0979 42.3532 17.4771C41.9741 17.8562 41.3593 17.8562 40.9801 17.4771C40.601 17.0979 40.601 16.4831 40.9801 16.104C41.3593 15.7248 41.9741 15.7248 42.3532 16.104Z" stroke="#79296B"/>
<path d="M47.8456 16.104C48.2248 16.4831 48.2248 17.0979 47.8456 17.4771C47.4664 17.8562 46.8517 17.8562 46.4725 17.4771C46.0933 17.0979 46.0933 16.4831 46.4725 16.104C46.8517 15.7248 47.4664 15.7248 47.8456 16.104Z" stroke="#79296B"/>
<path d="M45.0994 20.2232C45.4786 20.6024 45.4786 21.2172 45.0994 21.5963C44.7202 21.9755 44.1055 21.9755 43.7263 21.5963C43.3471 21.2172 43.3471 20.6024 43.7263 20.2232C44.1055 19.8441 44.7202 19.8441 45.0994 20.2232Z" stroke="#79296B"/>
<path d="M39.607 20.2232C39.9862 20.6024 39.9862 21.2172 39.607 21.5963C39.2279 21.9755 38.6131 21.9755 38.234 21.5963C37.8548 21.2172 37.8548 20.6024 38.234 20.2232C38.6131 19.8441 39.2279 19.8441 39.607 20.2232Z" stroke="#79296B"/>
<path d="M42.3532 24.3425C42.7324 24.7217 42.7324 25.3364 42.3532 25.7156C41.9741 26.0948 41.3593 26.0948 40.9801 25.7156C40.601 25.3364 40.601 24.7217 40.9801 24.3425C41.3593 23.9633 41.9741 23.9633 42.3532 24.3425Z" stroke="#79296B"/>
<path d="M36.8609 7.86543C37.24 8.2446 37.24 8.85935 36.8609 9.23852C36.4817 9.61769 35.8669 9.61769 35.4878 9.23852C35.1086 8.85935 35.1086 8.2446 35.4878 7.86543C35.8669 7.48626 36.4817 7.48626 36.8609 7.86543Z" stroke="#79296B"/>
<path d="M47.8456 7.86543C48.2248 8.2446 48.2248 8.85935 47.8456 9.23852C47.4664 9.61769 46.8517 9.61769 46.4725 9.23852C46.0933 8.85935 46.0933 8.2446 46.4725 7.86543C46.8517 7.48626 47.4664 7.48626 47.8456 7.86543Z" stroke="#79296B"/>
<path d="M34.1146 1C37.4504 2.40209 39.8569 3.0381 41.6666 9.92509C43.3661 6.92285 44.274 5.78331 45.7859 5.11927" stroke="#0E7C54"/>
<path d="M0.981687 44V43.67L1.28169 43.58C1.47169 43.52 1.60169 43.425 1.67169 43.295C1.74169 43.155 1.77669 42.975 1.77669 42.755V35.33C1.77669 35.13 1.75169 34.97 1.70169 34.85C1.65169 34.72 1.52669 34.62 1.32669 34.55L0.981687 34.415V34.085H3.84669L6.66669 41.42L9.32169 34.085H12.2467V34.415L12.0067 34.49C11.8167 34.55 11.6867 34.645 11.6167 34.775C11.5467 34.895 11.5117 35.055 11.5117 35.255C11.5017 35.835 11.4967 36.415 11.4967 36.995C11.4967 37.565 11.4967 38.145 11.4967 38.735V39.35C11.4967 39.93 11.4967 40.51 11.4967 41.09C11.4967 41.67 11.5017 42.245 11.5117 42.815C11.5117 43.025 11.5367 43.185 11.5867 43.295C11.6367 43.405 11.7567 43.495 11.9467 43.565L12.2467 43.67V44H8.60169V43.67L8.93169 43.565C9.12169 43.495 9.23669 43.405 9.27669 43.295C9.32669 43.175 9.35169 43.015 9.35169 42.815V39.56L9.38169 35.54L6.32169 44H5.48169L2.25669 35.63L2.31669 39.05V42.77C2.31669 42.99 2.34669 43.165 2.40669 43.295C2.46669 43.425 2.59169 43.515 2.78169 43.565L3.08169 43.67V44H0.981687ZM16.2747 36.575C16.9047 36.575 17.4447 36.705 17.8947 36.965C18.3447 37.225 18.6897 37.585 18.9297 38.045C19.1797 38.495 19.3047 39.015 19.3047 39.605C19.3047 39.735 19.2997 39.86 19.2897 39.98C19.2797 40.09 19.2597 40.195 19.2297 40.295H14.7147C14.7247 41.325 14.9147 42.065 15.2847 42.515C15.6647 42.965 16.2147 43.19 16.9347 43.19C17.4347 43.19 17.8397 43.11 18.1497 42.95C18.4597 42.78 18.7447 42.545 19.0047 42.245L19.2447 42.47C18.9447 43.02 18.5347 43.45 18.0147 43.76C17.5047 44.06 16.8947 44.21 16.1847 44.21C15.4747 44.21 14.8497 44.06 14.3097 43.76C13.7697 43.46 13.3447 43.03 13.0347 42.47C12.7347 41.9 12.5847 41.22 12.5847 40.43C12.5847 39.61 12.7597 38.915 13.1097 38.345C13.4697 37.775 13.9297 37.34 14.4897 37.04C15.0597 36.73 15.6547 36.575 16.2747 36.575ZM16.1997 37.01C15.9097 37.01 15.6547 37.095 15.4347 37.265C15.2247 37.425 15.0547 37.715 14.9247 38.135C14.8047 38.545 14.7347 39.125 14.7147 39.875H17.3997C17.5097 38.865 17.4697 38.135 17.2797 37.685C17.0897 37.235 16.7297 37.01 16.1997 37.01ZM22.7536 44.21C22.3636 44.21 22.0086 44.14 21.6886 44C21.3686 43.85 21.1136 43.61 20.9236 43.28C20.7436 42.94 20.6586 42.495 20.6686 41.945L20.7136 38.18C20.7136 37.96 20.6786 37.8 20.6086 37.7C20.5386 37.6 20.4136 37.53 20.2336 37.49L20.0536 37.43V37.16L22.6186 36.665L22.7836 36.83L22.7086 38.945V42.35C22.7086 42.69 22.7986 42.94 22.9786 43.1C23.1686 43.25 23.4036 43.325 23.6836 43.325C23.9736 43.325 24.2336 43.285 24.4636 43.205C24.7036 43.115 24.9486 42.985 25.1986 42.815L25.2436 38.195C25.2436 37.965 25.2086 37.805 25.1386 37.715C25.0786 37.625 24.9586 37.555 24.7786 37.505L24.6136 37.46V37.19L27.1186 36.665L27.2836 36.83L27.2386 38.945V42.875C27.2386 43.085 27.2636 43.255 27.3136 43.385C27.3736 43.505 27.4986 43.595 27.6886 43.655L27.8836 43.715V44L25.3486 44.15L25.2136 43.205C24.8736 43.495 24.5036 43.735 24.1036 43.925C23.7036 44.115 23.2536 44.21 22.7536 44.21ZM31.1597 44.21C30.6797 44.21 30.2447 44.155 29.8547 44.045C29.4747 43.945 29.1097 43.8 28.7597 43.61V41.84H29.1647L29.6147 42.695C29.8047 43.065 30.0197 43.34 30.2597 43.52C30.5097 43.7 30.8247 43.79 31.2047 43.79C31.6747 43.79 32.0497 43.69 32.3297 43.49C32.6097 43.28 32.7497 43 32.7497 42.65C32.7497 42.33 32.6447 42.07 32.4347 41.87C32.2247 41.67 31.8497 41.485 31.3097 41.315L30.6497 41.105C30.0597 40.925 29.5897 40.655 29.2397 40.295C28.8997 39.925 28.7297 39.465 28.7297 38.915C28.7297 38.485 28.8447 38.095 29.0747 37.745C29.3047 37.385 29.6397 37.1 30.0797 36.89C30.5197 36.68 31.0547 36.575 31.6847 36.575C32.0947 36.575 32.4697 36.625 32.8097 36.725C33.1597 36.815 33.4997 36.945 33.8297 37.115L33.7397 38.72H33.3497L32.8847 37.865C32.7247 37.545 32.5597 37.325 32.3897 37.205C32.2297 37.075 31.9797 37.01 31.6397 37.01C31.2797 37.01 30.9597 37.105 30.6797 37.295C30.4097 37.475 30.2747 37.73 30.2747 38.06C30.2747 38.37 30.3897 38.625 30.6197 38.825C30.8497 39.015 31.2197 39.195 31.7297 39.365L32.3747 39.56C33.1047 39.79 33.6247 40.095 33.9347 40.475C34.2447 40.855 34.3997 41.31 34.3997 41.84C34.3997 42.55 34.1147 43.125 33.5447 43.565C32.9847 43.995 32.1897 44.21 31.1597 44.21ZM42.0033 44.06L38.7933 35.21C38.6633 34.84 38.4083 34.6 38.0283 34.49L37.6983 34.4V34.085H41.8533V34.385L41.4333 34.49C41.2033 34.55 41.0733 34.655 41.0433 34.805C41.0233 34.955 41.0533 35.145 41.1333 35.375L43.2933 41.78L45.4683 35.375C45.5483 35.145 45.5833 34.955 45.5733 34.805C45.5733 34.655 45.4583 34.55 45.2283 34.49L44.8683 34.385V34.085H47.1033V34.4L46.7283 34.49C46.5183 34.54 46.3683 34.625 46.2783 34.745C46.1983 34.865 46.1233 35.03 46.0533 35.24L43.0683 44.06H42.0033ZM48.7031 35.75C48.3731 35.75 48.0931 35.645 47.8631 35.435C47.6331 35.225 47.5181 34.96 47.5181 34.64C47.5181 34.31 47.6331 34.045 47.8631 33.845C48.0931 33.635 48.3731 33.53 48.7031 33.53C49.0331 33.53 49.3131 33.635 49.5431 33.845C49.7731 34.045 49.8881 34.31 49.8881 34.64C49.8881 34.96 49.7731 35.225 49.5431 35.435C49.3131 35.645 49.0331 35.75 48.7031 35.75ZM46.9781 44V43.715L47.2031 43.655C47.4031 43.595 47.5381 43.505 47.6081 43.385C47.6781 43.265 47.7181 43.105 47.7281 42.905V40.145C47.7281 39.835 47.7281 39.55 47.7281 39.29C47.7281 39.02 47.7231 38.745 47.7131 38.465C47.7131 38.265 47.6731 38.11 47.5931 38C47.5231 37.88 47.3881 37.8 47.1881 37.76L46.9781 37.715V37.445L49.6031 36.575L49.7831 36.74L49.7381 38.87V42.92C49.7381 43.12 49.7731 43.28 49.8431 43.4C49.9231 43.52 50.0581 43.61 50.2481 43.67L50.4131 43.715V44H46.9781ZM51.0793 44V43.715L51.3193 43.655C51.6493 43.555 51.8143 43.31 51.8143 42.92V38.495C51.8043 38.285 51.7693 38.125 51.7093 38.015C51.6493 37.895 51.5193 37.815 51.3193 37.775L51.0793 37.715V37.445L53.5093 36.575L53.6893 36.74L53.7943 37.67C54.1543 37.35 54.5543 37.09 54.9943 36.89C55.4443 36.68 55.8843 36.575 56.3143 36.575C56.9743 36.575 57.4793 36.755 57.8293 37.115C58.1893 37.475 58.3693 38.025 58.3693 38.765V42.935C58.3693 43.325 58.5493 43.57 58.9093 43.67L59.0743 43.715V44H55.6243V43.715L55.8493 43.655C56.1793 43.545 56.3443 43.3 56.3443 42.92V38.465C56.3443 38.115 56.2693 37.86 56.1193 37.7C55.9693 37.54 55.7193 37.46 55.3693 37.46C54.8793 37.46 54.3693 37.675 53.8393 38.105V42.935C53.8393 43.325 54.0143 43.57 54.3643 43.67L54.5143 43.715V44H51.0793ZM59.7226 44V43.7L59.9176 43.64C60.2776 43.53 60.4576 43.28 60.4576 42.89V35.165C60.4576 34.955 60.4226 34.8 60.3526 34.7C60.2826 34.59 60.1476 34.51 59.9476 34.46L59.7226 34.4V34.115L62.2576 33.47L62.4976 33.605L62.4376 35.72V37.64C62.7876 37.35 63.1676 37.1 63.5776 36.89C63.9976 36.68 64.4476 36.575 64.9276 36.575C65.5876 36.575 66.1026 36.76 66.4726 37.13C66.8526 37.5 67.0426 38.07 67.0426 38.84V42.905C67.0426 43.105 67.0826 43.265 67.1626 43.385C67.2426 43.505 67.3826 43.595 67.5826 43.655L67.7176 43.7V44H64.2976V43.7L64.4776 43.64C64.8376 43.54 65.0176 43.29 65.0176 42.89V38.555C65.0176 38.145 64.9476 37.86 64.8076 37.7C64.6676 37.54 64.4226 37.46 64.0726 37.46C63.8326 37.46 63.5776 37.505 63.3076 37.595C63.0476 37.685 62.7726 37.835 62.4826 38.045V42.92C62.4826 43.12 62.5226 43.28 62.6026 43.4C62.6826 43.52 62.8176 43.605 63.0076 43.655L63.1426 43.7V44H59.7226ZM72.0706 44.21C71.3306 44.21 70.6806 44.055 70.1206 43.745C69.5706 43.435 69.1406 42.995 68.8306 42.425C68.5306 41.855 68.3806 41.175 68.3806 40.385C68.3806 39.595 68.5406 38.915 68.8606 38.345C69.1906 37.775 69.6306 37.34 70.1806 37.04C70.7406 36.73 71.3706 36.575 72.0706 36.575C72.7706 36.575 73.3956 36.73 73.9456 37.04C74.5056 37.34 74.9456 37.775 75.2656 38.345C75.5956 38.905 75.7606 39.585 75.7606 40.385C75.7606 41.175 75.6056 41.86 75.2956 42.44C74.9956 43.01 74.5706 43.45 74.0206 43.76C73.4706 44.06 72.8206 44.21 72.0706 44.21ZM72.0706 43.79C72.4306 43.79 72.7206 43.695 72.9406 43.505C73.1706 43.305 73.3356 42.96 73.4356 42.47C73.5356 41.98 73.5856 41.295 73.5856 40.415C73.5856 39.525 73.5356 38.835 73.4356 38.345C73.3356 37.845 73.1706 37.5 72.9406 37.31C72.7206 37.11 72.4306 37.01 72.0706 37.01C71.7106 37.01 71.4206 37.11 71.2006 37.31C70.9806 37.5 70.8156 37.845 70.7056 38.345C70.6056 38.835 70.5556 39.525 70.5556 40.415C70.5556 41.295 70.6056 41.98 70.7056 42.47C70.8156 42.96 70.9806 43.305 71.2006 43.505C71.4206 43.695 71.7106 43.79 72.0706 43.79ZM79.0454 44.21C78.5654 44.21 78.1304 44.155 77.7404 44.045C77.3604 43.945 76.9954 43.8 76.6454 43.61V41.84H77.0504L77.5004 42.695C77.6904 43.065 77.9054 43.34 78.1454 43.52C78.3954 43.7 78.7104 43.79 79.0904 43.79C79.5604 43.79 79.9354 43.69 80.2154 43.49C80.4954 43.28 80.6354 43 80.6354 42.65C80.6354 42.33 80.5304 42.07 80.3204 41.87C80.1104 41.67 79.7354 41.485 79.1954 41.315L78.5354 41.105C77.9454 40.925 77.4754 40.655 77.1254 40.295C76.7854 39.925 76.6154 39.465 76.6154 38.915C76.6154 38.485 76.7304 38.095 76.9604 37.745C77.1904 37.385 77.5254 37.1 77.9654 36.89C78.4054 36.68 78.9404 36.575 79.5704 36.575C79.9804 36.575 80.3554 36.625 80.6954 36.725C81.0454 36.815 81.3854 36.945 81.7154 37.115L81.6254 38.72H81.2354L80.7704 37.865C80.6104 37.545 80.4454 37.325 80.2754 37.205C80.1154 37.075 79.8654 37.01 79.5254 37.01C79.1654 37.01 78.8454 37.105 78.5654 37.295C78.2954 37.475 78.1604 37.73 78.1604 38.06C78.1604 38.37 78.2754 38.625 78.5054 38.825C78.7354 39.015 79.1054 39.195 79.6154 39.365L80.2604 39.56C80.9904 39.79 81.5104 40.095 81.8204 40.475C82.1304 40.855 82.2854 41.31 82.2854 41.84C82.2854 42.55 82.0004 43.125 81.4304 43.565C80.8704 43.995 80.0754 44.21 79.0454 44.21Z" fill="black"/>
</svg>
